<svg version="1.1" id="Layer_1" xmlns="http://www.w3.org/2000/svg" xmlns:xlink="http://www.w3.org/1999/xlink" x="0px" y="0px"
	 width="100%" viewBox="0 0 666 374" enable-background="new 0 0 666 374" xml:space="preserve">
<path fill="#000000" opacity="1.000000" stroke="none" 
	d="
M386.000000,375.000000 
	C257.364105,375.000000 129.228241,375.000000 1.046180,375.000000 
	C1.046180,250.394073 1.046180,125.788139 1.046180,1.091098 
	C222.885910,1.091098 444.771881,1.091098 666.828918,1.091098 
	C666.828918,125.666481 666.828918,250.333221 666.828918,375.000000 
	C573.454773,375.000000 479.977386,375.000000 386.000000,375.000000 
M96.986275,147.926559 
	C96.986275,147.926559 96.932076,147.909744 96.275627,147.972137 
	C95.201630,148.705399 94.127632,149.438660 92.475449,150.234711 
	C91.981766,150.539703 91.488083,150.844711 90.496506,151.219101 
	C90.288841,151.475327 90.081177,151.731567 89.379562,152.238510 
	C88.922913,152.549179 88.466255,152.859833 87.363228,153.159424 
	C86.518936,153.760101 85.674644,154.360794 84.415337,155.047806 
	C84.415337,155.047806 84.015808,155.189453 83.296654,155.081940 
	C78.872421,157.726746 74.448189,160.371552 69.341911,163.135147 
	C63.372635,167.462952 57.403362,171.790756 51.434086,176.118576 
	C51.654362,176.462296 51.874634,176.806015 52.094906,177.149734 
	C58.811932,173.465210 65.528961,169.780701 72.945129,165.996246 
	C77.369576,163.679855 81.794022,161.363464 86.615837,158.973083 
	C86.615837,158.973083 87.001511,158.852112 87.604240,158.908356 
	C88.080215,158.609680 88.556190,158.311005 88.992340,158.000015 
	C88.992340,158.000015 89.011131,158.037292 89.694717,157.914978 
	C91.469131,156.951019 93.243546,155.987061 95.775650,154.987823 
	C96.419502,154.849731 97.111595,154.820007 97.700233,154.557922 
	C122.191597,143.654129 147.523773,135.054688 173.537537,128.817413 
	C194.849716,123.707443 216.515472,120.072174 238.862305,115.907211 
	C255.212402,114.196091 271.562500,112.484978 288.775574,110.889130 
	C290.512909,110.849388 292.250275,110.809647 294.840881,110.888092 
	C300.275787,110.586563 305.713318,109.999634 311.145020,110.049065 
	C319.721313,110.127121 328.297943,110.547142 336.866638,110.977997 
	C347.753662,111.525429 358.644287,112.079277 369.512238,112.907295 
	C379.687195,113.682503 389.834595,114.819168 400.822540,115.942863 
	C421.878784,119.572281 442.935028,123.201698 464.483063,126.956238 
	C464.648987,126.989075 464.814941,127.021912 465.492889,127.622566 
	C469.365234,128.313583 473.237610,129.004608 477.643250,130.044037 
	C478.423462,130.269989 479.203644,130.495941 480.597260,130.867325 
	C481.014374,130.918808 481.431488,130.970291 482.323425,131.635330 
	C487.363068,132.816833 492.402679,133.998337 497.442322,135.179855 
	C497.692200,134.352982 497.942078,133.526123 498.191956,132.699265 
	C492.784698,130.859390 487.377441,129.019531 481.623779,127.038681 
	C481.623779,127.038681 481.258514,126.958473 480.862366,126.299614 
	C477.919708,125.506813 474.977081,124.714012 472.026428,123.994957 
	C472.026428,123.994957 472.067963,123.933441 471.791107,123.280617 
	C470.858734,123.239655 469.926392,123.198692 468.617859,123.027916 
	C468.617859,123.027916 468.224609,122.967064 467.892975,122.417236 
	C466.923553,122.029228 465.954163,121.641228 464.220551,121.074471 
	C460.479340,120.103821 456.738129,119.133171 452.362152,118.038429 
	C451.934448,117.984131 451.506744,117.929832 450.710724,117.409821 
	C450.138336,117.318428 449.565918,117.227036 448.417267,117.014244 
	C448.025330,116.994942 447.633392,116.975639 446.749756,116.357880 
	C438.847137,114.620071 430.944519,112.882263 422.472961,110.854996 
	C421.705963,110.531792 420.938934,110.208588 419.629944,109.303467 
	C415.583221,108.848999 411.536469,108.394531 407.780365,107.728775 
	C407.780365,107.728775 407.574188,107.434509 407.073700,106.811111 
	C397.706451,105.518173 388.339203,104.225235 379.006439,102.990036 
	C379.006439,102.990036 379.059296,102.948410 378.469971,102.383560 
	C363.426605,100.904228 348.411346,98.879242 333.331787,98.103554 
	C319.091156,97.371017 304.782898,97.934608 290.504700,97.997513 
	C289.622345,98.001389 288.742645,98.612488 287.217468,98.996941 
	C286.790497,99.053162 286.363556,99.109383 285.011566,99.078720 
	C276.761261,99.400742 268.487610,99.446091 260.268524,100.138695 
	C254.455032,100.628593 248.715363,101.994720 242.225311,102.997047 
	C240.850388,103.286697 239.475464,103.576355 237.581940,103.330017 
	C224.647354,105.881943 211.650909,108.160408 198.796707,111.067780 
	C187.444839,113.635345 176.069992,116.354370 165.033188,119.999367 
	C150.490555,124.802208 136.268478,130.575592 121.978104,135.931107 
	C121.978104,135.931107 121.940910,135.872360 121.222168,136.004227 
	C119.055420,137.205963 116.888672,138.407715 114.602180,139.559586 
	C114.602180,139.559586 114.538925,139.672821 113.839859,139.797333 
	C108.863579,142.179123 103.887299,144.560928 98.477829,147.015549 
	C98.477829,147.015549 98.046860,147.100540 97.515160,147.119370 
	C97.325798,147.402100 97.136436,147.684845 96.986275,147.926559 
M569.220154,165.175018 
	C568.152954,164.425827 567.085815,163.676651 566.006409,162.989105 
	C566.006409,162.989105 566.068054,162.976715 565.730530,162.396439 
	C563.170654,160.237778 560.610840,158.079117 558.013916,155.975540 
	C558.013916,155.975540 558.075195,156.001205 558.059875,155.327927 
	C558.000854,154.883194 557.941772,154.438461 557.978149,153.361725 
	C558.007202,152.936600 558.036194,152.511475 558.655640,151.518295 
	C558.177979,146.359314 562.234619,140.959244 558.028137,135.447296 
	C555.741577,137.530914 553.839233,139.264435 551.216370,141.069122 
	C541.771851,149.061676 533.571045,141.070786 523.725037,138.298233 
	C524.721924,142.394028 525.335449,145.641815 526.314392,148.775421 
	C528.007935,154.196472 529.119202,159.136108 523.412720,163.320572 
	C520.603882,165.380219 518.743225,168.732864 515.750854,172.349701 
	C518.980225,172.993805 521.468201,173.892670 523.963257,173.912735 
	C531.694824,173.974884 538.168396,175.664642 540.723572,184.176956 
	C541.227966,185.857254 542.435669,187.385483 543.552490,188.799454 
	C544.169495,189.580704 545.403076,190.558807 546.119019,190.395721 
	C546.917603,190.213760 547.651062,188.924911 548.053406,187.966904 
	C549.772888,183.873093 551.230774,179.664474 553.078430,175.632629 
	C553.590820,174.514648 554.988708,173.439346 556.201050,173.071121 
	C560.404175,171.794495 564.704407,170.837662 569.661316,169.845688 
	C570.573059,169.458984 571.484802,169.072266 572.396545,168.685547 
	C571.340027,167.718475 570.283447,166.751389 569.146606,165.792297 
	C569.146606,165.792297 569.154053,165.872650 569.220154,165.175018 
M446.617065,248.662247 
	C447.078857,241.507416 447.786743,234.357971 447.944031,227.196457 
	C448.172150,216.807739 448.002472,206.410278 448.002472,195.522278 
	C445.236725,195.522278 441.908051,195.522278 438.115173,195.522278 
	C438.115173,212.844376 438.096832,229.937973 438.193390,247.030914 
	C438.196716,247.613876 439.354034,248.190338 440.825806,248.910843 
	C442.549561,248.883743 444.273346,248.856628 446.617065,248.662247 
M545.778320,249.811996 
	C546.842102,248.495880 548.813904,247.191711 548.831360,245.861816 
	C549.042847,229.787689 548.994263,213.709549 548.879395,197.633438 
	C548.873718,196.837173 547.637329,196.049698 546.100647,195.135834 
	C543.636353,195.135834 541.171997,195.135834 539.053894,195.135834 
	C539.053894,211.517029 539.235901,227.627274 538.941833,243.728836 
	C538.854736,248.498093 540.191101,250.501709 545.778320,249.811996 
M239.982193,217.180222 
	C239.982193,217.180222 239.922119,217.248108 239.904190,217.946365 
	C242.648804,219.617859 245.213623,221.806030 248.180603,222.838440 
	C252.514069,224.346313 257.161530,224.927383 261.626740,226.089523 
	C264.679352,226.884018 267.568756,228.437378 266.855927,232.147476 
	C266.458069,234.218079 264.931061,237.444580 263.477234,237.703445 
	C256.929443,238.869293 250.266205,240.481659 243.778976,236.494904 
	C240.369293,234.399490 236.815674,236.659012 234.618591,239.191315 
	C234.070404,239.823151 236.670959,243.783493 238.437714,245.625656 
	C239.697296,246.938995 241.945343,247.805908 243.818466,247.938705 
	C250.398422,248.405197 257.114563,249.311996 263.579681,248.487854 
	C273.468445,247.227295 278.332092,240.450684 277.981476,230.545975 
	C277.718414,223.114105 270.985809,217.298126 261.919342,215.860321 
	C257.267303,215.122574 252.747437,213.411972 248.263901,211.862961 
	C247.316452,211.535614 246.416580,210.073151 246.188614,208.987976 
	C246.017426,208.173080 246.942307,206.314072 247.405640,206.305252 
	C252.213379,206.213562 257.886383,204.854828 261.611023,206.923431 
	C265.853333,209.279572 269.167419,208.677460 273.786896,207.711395 
	C272.301605,204.087769 270.764984,200.485397 268.171875,197.973770 
	C263.883331,193.819992 245.846436,193.888031 241.049484,197.512955 
	C234.365784,202.563644 233.733521,213.573959 239.982193,217.180222 
M318.242981,196.026962 
	C314.826752,197.997574 311.410522,199.968170 307.295654,202.047684 
	C297.060547,208.986115 297.368439,219.662552 299.395721,229.496796 
	C303.617767,249.977539 328.457916,253.963730 342.321686,244.109100 
	C343.349518,243.378494 344.053925,242.192871 344.868317,241.264786 
	C340.160370,234.768448 339.743256,235.009186 332.928497,236.958344 
	C328.851990,238.124283 324.226105,238.451706 320.028168,237.863739 
	C313.306976,236.922363 308.273987,229.805542 308.001312,222.336380 
	C307.758759,215.690872 313.484222,208.020218 319.546478,205.998642 
	C326.598602,203.646957 332.430450,206.312668 337.737183,209.570496 
	C340.506439,207.297028 343.005280,205.245544 345.902710,202.866852 
	C337.397217,195.537598 328.711975,193.655838 318.242981,196.026962 
M610.066162,242.628387 
	C610.676514,244.163376 611.185242,245.749008 611.919922,247.221939 
	C613.139954,249.667618 619.535217,251.463531 622.010986,249.524948 
	C623.018433,248.736023 623.140564,245.678329 622.513062,244.115707 
	C616.323242,228.701981 609.800842,213.421982 603.589111,198.016815 
	C601.980286,194.027008 598.878235,195.142868 596.078064,195.028046 
	C593.470337,194.921127 590.874756,194.583221 589.521362,197.981522 
	C583.204163,213.844604 576.733643,229.647034 570.241516,245.439758 
	C569.076660,248.273331 570.253540,249.435349 572.825745,249.926712 
	C579.006592,251.107483 581.750671,248.722458 583.954529,241.027863 
	C587.082764,241.020309 590.214905,240.908569 593.338318,241.028152 
	C598.866882,241.239838 604.390015,241.592148 610.066162,242.628387 
M40.948727,229.063370 
	C46.702812,229.064270 52.459381,229.163330 58.209755,229.017700 
	C60.501881,228.959656 62.780315,228.360809 65.810654,227.987167 
	C77.395203,225.876877 83.173996,211.791550 75.320595,202.848526 
	C72.517944,199.656998 68.463005,197.565186 64.552277,194.219055 
	C53.628338,194.147537 42.704407,194.056839 31.780432,194.050797 
	C31.104948,194.050430 30.429098,194.716599 29.172497,195.659668 
	C29.172497,213.194702 29.172497,230.729736 29.172497,248.663132 
	C31.382713,248.786636 33.220047,248.630569 34.923729,249.036072 
	C39.012783,250.009277 40.241238,248.401703 40.056805,244.450928 
	C39.817326,239.320923 40.008984,234.170776 40.948727,229.063370 
M212.708923,194.211945 
	C199.406494,194.178833 186.104050,194.145721 172.395020,194.110001 
	C172.105255,194.264206 172.014572,194.496231 171.285980,195.183121 
	C171.197220,212.008881 171.100693,228.834625 171.064819,245.660492 
	C171.063934,246.077286 171.734558,246.495514 172.284729,247.691360 
	C173.955963,248.110001 175.622452,248.868347 177.299225,248.891861 
	C187.793900,249.039185 198.293213,248.910995 208.785614,249.131027 
	C211.767776,249.193573 214.117203,249.357498 214.029938,245.384460 
	C213.956879,242.058441 214.036407,238.889145 209.286362,238.965439 
	C203.002716,239.066360 196.714447,239.059647 190.430939,238.946243 
	C181.457199,238.784302 181.973694,241.157242 181.894760,229.955002 
	C181.872833,226.843475 183.102371,225.895599 186.044312,225.980865 
	C191.205002,226.130478 196.375137,225.930481 201.538071,226.035919 
	C204.701416,226.100510 206.228180,224.831711 205.994232,221.603455 
	C205.856155,219.697968 205.782639,217.787811 205.685760,215.985321 
	C199.038559,215.985321 193.050186,215.715454 187.099884,216.075073 
	C182.739517,216.338608 181.725861,214.582306 181.795334,210.607132 
	C181.859955,206.910782 182.266083,204.687347 186.877655,204.909332 
	C194.358688,205.269440 201.871078,204.920853 209.365845,205.078934 
	C212.840851,205.152237 214.377151,203.739197 213.979034,200.348434 
	C213.770737,198.574249 213.305817,196.830185 212.708923,194.211945 
M109.752754,243.647217 
	C109.752754,238.892776 109.752754,234.138336 109.752754,228.825439 
	C116.049599,228.825439 121.504379,228.825439 127.540184,229.228821 
	C130.473099,234.391342 133.351242,239.585983 136.355225,244.706818 
	C139.049957,249.300491 146.032883,250.885101 151.248459,248.020309 
	C147.135498,241.228455 143.029251,234.447693 138.974304,227.751663 
	C148.081848,220.959869 150.107040,215.714508 147.954895,206.666275 
	C146.279831,199.623795 141.149353,196.718872 134.533524,194.170731 
	C123.849297,194.119324 113.165047,194.045792 102.480911,194.060944 
	C101.676903,194.062088 100.873802,194.695663 99.470901,195.617996 
	C99.338577,212.353989 99.173370,229.089935 99.155746,245.826050 
	C99.154694,246.828568 100.305267,248.667252 100.968002,248.689545 
	C103.693680,248.781281 106.451378,248.393326 109.143356,247.892044 
	C109.312653,247.860535 109.022018,245.358963 109.752754,243.647217 
M365.325958,196.452606 
	C365.240265,213.445282 365.146088,230.437927 365.113800,247.430710 
	C365.112915,247.895706 365.778198,248.361969 366.726471,249.163757 
	C368.137573,249.148621 369.656494,248.784561 370.940338,249.181305 
	C375.476135,250.582932 376.087006,248.044266 376.037781,244.534103 
	C375.981781,240.541855 376.085754,236.546463 375.979919,232.556152 
	C375.913757,230.060669 376.793060,228.893646 379.439453,228.986786 
	C383.261139,229.121307 387.112427,228.784622 390.907166,229.130661 
	C392.407196,229.267441 394.287170,230.357712 395.134552,231.600082 
	C398.013062,235.820480 400.489258,240.313934 403.153900,244.681900 
	C406.629944,250.380020 410.819977,251.601837 417.696320,248.513138 
	C414.282562,242.696472 411.096069,236.797745 407.424347,231.218323 
	C405.710907,228.614670 405.904938,226.869720 408.345520,225.461395 
	C416.824768,220.568466 417.694611,206.438995 410.375671,200.064438 
	C407.785797,197.808731 404.219574,196.673996 400.664825,194.253815 
	C389.754425,194.167099 378.844086,194.063248 367.933563,194.040527 
	C367.342987,194.039307 366.750946,194.717438 366.074615,195.515640 
	C366.074615,195.515640 366.043854,195.959091 365.325958,196.452606 
M503.635742,194.224182 
	C492.842102,194.147537 482.048462,194.047714 471.254822,194.048798 
	C470.568939,194.048859 469.883118,194.832916 468.999603,195.894379 
	C468.749298,196.821243 468.296387,197.744644 468.280487,198.675507 
	C468.140991,206.841476 467.913696,215.011414 468.042969,223.174942 
	C468.164764,230.863693 468.615479,238.550812 469.125427,246.225113 
	C469.187164,247.154053 470.405975,248.612015 471.282349,248.773636 
	C474.677155,249.399765 478.154907,249.934921 481.593506,249.888733 
	C488.311859,249.798523 495.026031,249.010010 501.739471,249.041168 
	C508.739563,249.073639 513.511475,245.701843 516.425537,239.889954 
	C519.327087,234.102982 519.119629,228.162674 515.214844,222.570175 
	C514.432373,221.449493 513.880432,219.466217 514.324097,218.299759 
	C518.667175,206.880737 515.187866,198.786285 503.635742,194.224182 
z"/>
<path fill="#431575" opacity="1.000000" stroke="none" 
	d="
M90.994400,151.149719 
	C91.488083,150.844711 91.981766,150.539703 93.020889,150.329834 
	C94.688240,149.586563 95.810158,148.748154 96.932076,147.909744 
	C96.932076,147.909744 96.986275,147.926559 97.169998,147.829651 
	C97.615364,147.555573 97.846413,147.344833 98.046860,147.100540 
	C98.046860,147.100540 98.477829,147.015549 98.970062,147.172363 
	C104.551468,145.253418 109.644257,143.186264 114.707123,141.048218 
	C114.823845,140.998917 114.602554,140.149185 114.538925,139.672821 
	C114.538925,139.672821 114.602180,139.559586 115.051552,139.667587 
	C117.647583,138.474518 119.794250,137.173431 121.940910,135.872360 
	C121.940910,135.872360 121.978104,135.931107 122.362823,135.953827 
	C124.855057,135.587540 127.043793,135.442245 129.057327,134.771240 
	C146.136200,129.079666 163.079117,122.954987 180.276413,117.652977 
	C191.631226,114.152229 203.318390,111.711014 214.893784,108.950706 
	C222.595581,107.114105 230.362671,105.551346 238.100540,103.866013 
	C239.475464,103.576355 240.850388,103.286697 242.948212,103.041626 
	C253.067276,102.635033 262.479309,102.385330 271.852997,101.648209 
	C276.583374,101.276222 281.244263,100.021294 285.936584,99.165604 
	C286.363556,99.109383 286.790497,99.053162 287.903900,99.185867 
	C290.555206,99.580429 292.526764,100.009087 294.483765,99.950592 
	C300.777283,99.762489 307.100952,98.817062 313.349121,99.201752 
	C333.988953,100.472511 354.599335,102.217598 375.226624,103.703667 
	C376.479553,103.793930 377.780609,103.215637 379.059296,102.948410 
	C379.059296,102.948410 379.006439,102.990036 379.300659,103.184204 
	C385.087555,104.546204 390.545288,105.937416 396.085052,106.804306 
	C399.855316,107.394287 403.740417,107.250290 407.574188,107.434509 
	C407.574188,107.434509 407.780365,107.728775 407.995544,108.012589 
	C412.197784,108.826065 416.184845,109.355728 420.171936,109.885391 
	C420.938934,110.208588 421.705963,110.531792 423.031677,111.225945 
	C431.474091,113.383377 439.357788,115.169853 447.241455,116.956345 
	C447.633392,116.975639 448.025330,116.994942 448.787262,117.307632 
	C449.797852,117.692528 450.438446,117.784035 451.079041,117.875542 
	C451.506744,117.929832 451.934448,117.984131 452.816101,118.416428 
	C457.178741,120.196732 461.087402,121.599037 465.399323,122.997887 
	C466.609894,122.985306 467.417267,122.976181 468.224609,122.967064 
	C468.224609,122.967064 468.617859,123.027916 468.805054,123.308945 
	C468.992218,123.589973 468.992584,124.022842 468.895264,124.296501 
	C467.525574,125.398354 466.253204,126.226547 464.980865,127.054741 
	C464.814941,127.021912 464.648987,126.989075 464.075928,126.588455 
	C457.649445,124.704788 451.700745,122.758209 445.596924,121.757950 
	C430.441101,119.274315 415.214539,117.222549 399.691925,114.787811 
	C384.661865,113.047539 369.983429,111.132927 355.243286,110.090263 
	C339.412628,108.970467 323.528107,108.428604 307.658234,108.164032 
	C303.117096,108.088326 298.545319,109.850471 293.987610,110.769897 
	C292.250275,110.809647 290.512909,110.849388 287.984253,110.658722 
	C285.878662,110.282951 284.551849,109.940536 283.252075,110.023209 
	C272.185089,110.727112 261.099121,111.272499 250.071854,112.388817 
	C245.983414,112.802711 242.036148,114.610870 238.024490,115.783173 
	C216.515472,120.072174 194.849716,123.707443 173.537537,128.817413 
	C147.523773,135.054688 122.191597,143.654129 97.700233,154.557922 
	C97.111595,154.820007 96.419502,154.849731 95.089760,154.875381 
	C91.228928,153.585938 90.048019,155.693008 89.011131,158.037292 
	C89.011131,158.037292 88.992340,158.000015 88.736221,158.050140 
	C87.987228,158.350876 87.494370,158.601486 87.001511,158.852112 
	C87.001511,158.852112 86.615837,158.973083 86.090782,158.972748 
	C85.049088,157.711426 84.532448,156.450439 84.015808,155.189453 
	C84.015808,155.189453 84.415337,155.047806 84.958298,154.993607 
	C86.337379,154.349777 87.173492,153.760132 88.009605,153.170502 
	C88.466255,152.859833 88.922913,152.549179 89.831467,151.998413 
	C90.548546,151.588348 90.785561,151.385483 90.994400,151.149719 
z"/>
<path fill="#441875" opacity="1.000000" stroke="none" 
	d="
M504.062347,194.993073 
	C515.187866,198.786285 518.667175,206.880737 514.324097,218.299759 
	C513.880432,219.466217 514.432373,221.449493 515.214844,222.570175 
	C519.119629,228.162674 519.327087,234.102982 516.425537,239.889954 
	C513.511475,245.701843 508.739563,249.073639 501.739471,249.041168 
	C495.026031,249.010010 488.311859,249.798523 481.593506,249.888733 
	C478.154907,249.934921 474.677155,249.399765 471.282349,248.773636 
	C470.405975,248.612015 469.187164,247.154053 469.125427,246.225113 
	C468.615479,238.550812 468.164764,230.863693 468.042969,223.174942 
	C467.913696,215.011414 468.140991,206.841476 468.280487,198.675507 
	C468.296387,197.744644 468.749298,196.821243 469.545593,195.509583 
	C481.415161,195.080887 492.738739,195.036987 504.062347,194.993073 
M503.069733,224.941238 
	C498.293579,224.930176 493.512360,224.781601 488.743011,224.956375 
	C485.563446,225.072876 482.400757,225.650253 478.493347,226.314789 
	C477.994110,229.304962 477.386536,232.282074 477.024445,235.288773 
	C476.618195,238.662399 478.212921,240.076202 481.662140,240.051834 
	C488.317719,240.004776 494.990387,240.006180 501.627075,240.434830 
	C506.565826,240.753799 508.618805,238.012421 509.681610,233.999756 
	C510.657135,230.316757 507.951813,226.253906 503.069733,224.941238 
M478.988770,211.142685 
	C479.129517,212.587524 479.270264,214.032364 479.496460,216.354111 
	C486.796814,215.878479 493.874207,215.676514 500.864136,214.787094 
	C502.704041,214.552979 504.273438,212.192673 505.967041,210.808716 
	C504.276367,208.895172 502.722260,205.501648 500.870758,205.330795 
	C493.815369,204.679672 486.664062,205.068069 479.299774,205.068069 
	C479.117432,207.147797 478.977295,208.746384 478.988770,211.142685 
z"/>
<path fill="#451875" opacity="1.000000" stroke="none" 
	d="
M401.099091,195.027496 
	C404.219574,196.673996 407.785797,197.808731 410.375671,200.064438 
	C417.694611,206.438995 416.824768,220.568466 408.345520,225.461395 
	C405.904938,226.869720 405.710907,228.614670 407.424347,231.218323 
	C411.096069,236.797745 414.282562,242.696472 417.696320,248.513138 
	C410.819977,251.601837 406.629944,250.380020 403.153900,244.681900 
	C400.489258,240.313934 398.013062,235.820480 395.134552,231.600082 
	C394.287170,230.357712 392.407196,229.267441 390.907166,229.130661 
	C387.112427,228.784622 383.261139,229.121307 379.439453,228.986786 
	C376.793060,228.893646 375.913757,230.060669 375.979919,232.556152 
	C376.085754,236.546463 375.981781,240.541855 376.037781,244.534103 
	C376.087006,248.044266 375.476135,250.582932 370.940338,249.181305 
	C369.656494,248.784561 368.137573,249.148621 366.404175,248.540619 
	C366.069183,230.598022 366.056519,213.278564 366.043854,195.959091 
	C366.043854,195.959091 366.074615,195.515640 366.571655,195.280731 
	C378.412140,195.039719 389.755615,195.033600 401.099091,195.027496 
M403.979431,216.000610 
	C403.979431,216.000610 403.909943,215.973648 404.546021,215.769699 
	C407.348663,212.624298 407.088928,209.718216 403.945923,206.989029 
	C403.945923,206.989029 404.000854,207.070770 403.687439,206.666290 
	C403.430573,206.442673 403.173706,206.219070 403.004547,206.046371 
	C403.004547,206.046371 402.953491,206.133972 402.794800,205.483643 
	C400.941406,204.742126 399.101501,203.408066 397.232208,203.365463 
	C390.478882,203.211609 383.714355,203.450546 376.957886,203.662125 
	C376.126190,203.688171 374.626587,204.412018 374.605469,204.866714 
	C374.408936,209.102646 374.468323,213.350479 374.453522,217.594864 
	C374.886871,217.413544 375.320221,217.232208 376.369263,217.642761 
	C378.967041,217.868637 381.564819,218.094498 384.895996,218.603790 
	C389.842590,218.817703 394.790466,219.175751 399.734833,219.132935 
	C400.819702,219.123535 401.892242,217.688019 402.998016,216.979446 
	C402.998016,216.979446 402.927765,217.006760 403.328064,216.690765 
	C403.554108,216.437546 403.780151,216.184311 403.979431,216.000610 
z"/>
<path fill="#441874" opacity="1.000000" stroke="none" 
	d="
M134.869614,194.967804 
	C141.149353,196.718872 146.279831,199.623795 147.954895,206.666275 
	C150.107040,215.714508 148.081848,220.959869 138.974304,227.751663 
	C143.029251,234.447693 147.135498,241.228455 151.248459,248.020309 
	C146.032883,250.885101 139.049957,249.300491 136.355225,244.706818 
	C133.351242,239.585983 130.473099,234.391342 126.955872,228.724274 
	C108.532906,226.111557 108.532883,226.111557 108.929634,243.511627 
	C108.933403,243.676636 108.940063,243.841568 108.945366,244.006546 
	C109.022018,245.358963 109.312653,247.860535 109.143356,247.892044 
	C106.451378,248.393326 103.693680,248.781281 100.968002,248.689545 
	C100.305267,248.667252 99.154694,246.828568 99.155746,245.826050 
	C99.173370,229.089935 99.338577,212.353989 100.234100,195.314087 
	C112.288063,194.996033 123.578842,194.981918 134.869614,194.967804 
M110.015060,217.956482 
	C117.690140,218.046295 125.365219,218.136108 133.427155,218.681870 
	C134.009995,218.942230 134.741196,219.571533 135.152802,219.406021 
	C139.401871,217.697433 140.343658,214.225372 139.968781,210.062592 
	C139.633652,206.341293 137.683014,204.155762 133.943497,204.061386 
	C127.620277,203.901794 121.284592,204.139725 114.966705,203.891144 
	C107.771965,203.608047 107.226608,203.942276 107.038963,211.157410 
	C106.991417,212.985657 106.946426,214.836960 107.201347,216.634995 
	C107.270821,217.125015 108.435959,217.459702 110.015060,217.956482 
z"/>
<path fill="#441974" opacity="1.000000" stroke="none" 
	d="
M172.122986,194.806076 
	C172.014572,194.496231 172.105255,194.264206 172.924728,194.407028 
	C186.621887,194.826889 199.789352,194.949707 212.956802,195.072525 
	C213.305817,196.830185 213.770737,198.574249 213.979034,200.348434 
	C214.377151,203.739197 212.840851,205.152237 209.365845,205.078934 
	C201.871078,204.920853 194.358688,205.269440 186.877655,204.909332 
	C182.266083,204.687347 181.859955,206.910782 181.795334,210.607132 
	C181.725861,214.582306 182.739517,216.338608 187.099884,216.075073 
	C193.050186,215.715454 199.038559,215.985321 205.685760,215.985321 
	C205.782639,217.787811 205.856155,219.697968 205.994232,221.603455 
	C206.228180,224.831711 204.701416,226.100510 201.538071,226.035919 
	C196.375137,225.930481 191.205002,226.130478 186.044312,225.980865 
	C183.102371,225.895599 181.872833,226.843475 181.894760,229.955002 
	C181.973694,241.157242 181.457199,238.784302 190.430939,238.946243 
	C196.714447,239.059647 203.002716,239.066360 209.286362,238.965439 
	C214.036407,238.889145 213.956879,242.058441 214.029938,245.384460 
	C214.117203,249.357498 211.767776,249.193573 208.785614,249.131027 
	C198.293213,248.910995 187.793900,249.039185 177.299225,248.891861 
	C175.622452,248.868347 173.955963,248.110001 172.156830,246.842499 
	C172.060287,228.931107 172.091629,211.868591 172.122986,194.806076 
z"/>
<path fill="#431575" opacity="1.000000" stroke="none" 
	d="
M558.065186,152.086349 
	C558.036194,152.511475 558.007202,152.936600 557.787170,153.868774 
	C557.755859,154.917633 557.915527,155.459412 558.075195,156.001205 
	C558.075195,156.001205 558.013916,155.975540 558.048828,156.304626 
	C560.745178,158.748062 563.406616,160.862381 566.068054,162.976715 
	C566.068054,162.976715 566.006409,162.989105 566.084900,163.290329 
	C567.160278,164.351913 568.157166,165.112289 569.154053,165.872650 
	C569.154053,165.872650 569.146606,165.792297 569.123230,166.186844 
	C569.055786,167.640640 569.011719,168.699890 568.967651,169.759140 
	C564.704407,170.837662 560.404175,171.794495 556.201050,173.071121 
	C554.988708,173.439346 553.590820,174.514648 553.078430,175.632629 
	C551.230774,179.664474 549.772888,183.873093 548.053406,187.966904 
	C547.651062,188.924911 546.917603,190.213760 546.119019,190.395721 
	C545.403076,190.558807 544.169495,189.580704 543.552490,188.799454 
	C542.435669,187.385483 541.227966,185.857254 540.723572,184.176956 
	C538.168396,175.664642 531.694824,173.974884 523.963257,173.912735 
	C521.468201,173.892670 518.980225,172.993805 515.750854,172.349701 
	C518.743225,168.732864 520.603882,165.380219 523.412720,163.320572 
	C529.119202,159.136108 528.007935,154.196472 526.314392,148.775421 
	C525.335449,145.641815 524.721924,142.394028 523.725037,138.298233 
	C533.571045,141.070786 541.771851,149.061676 551.938354,141.006363 
	C554.180115,140.856339 555.699829,140.769058 556.773376,140.707413 
	C557.261902,145.010529 557.663574,148.548447 558.065186,152.086349 
z"/>
<path fill="#441874" opacity="1.000000" stroke="none" 
	d="
M64.979668,194.971420 
	C68.463005,197.565186 72.517944,199.656998 75.320595,202.848526 
	C83.173996,211.791550 77.395203,225.876877 64.967384,227.945374 
	C58.045521,227.893524 51.964840,227.790436 45.889538,227.926926 
	C43.924118,227.971085 41.972824,228.643997 40.015068,229.029297 
	C40.008984,234.170776 39.817326,239.320923 40.056805,244.450928 
	C40.241238,248.401703 39.012783,250.009277 34.923729,249.036072 
	C33.220047,248.630569 31.382713,248.786636 29.172497,248.663132 
	C29.172497,230.729736 29.172497,213.194702 29.951260,195.349060 
	C42.146568,195.016113 53.563118,194.993774 64.979668,194.971420 
M39.299484,217.663147 
	C41.551579,217.834671 43.803669,218.006180 46.783886,218.533661 
	C52.577312,218.665237 58.373074,218.959961 64.163437,218.877228 
	C68.872536,218.809952 69.764824,215.017792 69.769997,211.501389 
	C69.775177,207.976425 68.850342,204.197632 64.176865,204.084595 
	C56.714382,203.904099 49.238216,203.887161 41.783318,204.186539 
	C40.521252,204.237228 38.381531,206.155151 38.299881,207.325653 
	C38.075996,210.535355 38.732204,213.806473 39.299484,217.663147 
z"/>
<path fill="#451875" opacity="1.000000" stroke="none" 
	d="
M583.024353,241.090012 
	C581.750671,248.722458 579.006592,251.107483 572.825745,249.926712 
	C570.253540,249.435349 569.076660,248.273331 570.241516,245.439758 
	C576.733643,229.647034 583.204163,213.844604 589.521362,197.981522 
	C590.874756,194.583221 593.470337,194.921127 596.078064,195.028046 
	C598.878235,195.142868 601.980286,194.027008 603.589111,198.016815 
	C609.800842,213.421982 616.323242,228.701981 622.513062,244.115707 
	C623.140564,245.678329 623.018433,248.736023 622.010986,249.524948 
	C619.535217,251.463531 613.139954,249.667618 611.919922,247.221939 
	C611.185242,245.749008 610.676514,244.163376 609.893433,241.865479 
	C608.235352,240.714783 606.756165,240.022552 605.263672,239.992752 
	C599.340637,239.874542 593.411743,239.890854 587.488892,240.025894 
	C585.993408,240.059982 584.512146,240.718460 583.024353,241.090012 
M591.000000,222.000610 
	C591.000000,222.000610 590.984680,221.986069 590.376282,222.231857 
	C589.255737,224.400253 585.499512,225.680664 588.052307,229.469452 
	C588.052307,229.469452 588.032593,229.847534 588.019226,230.424393 
	C588.013672,230.616638 588.008057,230.808899 587.893005,231.059326 
	C587.893005,231.059326 587.999207,230.998306 588.833801,231.067200 
	C593.947815,231.583755 599.168396,233.792770 604.406860,229.882965 
	C604.690002,229.723969 604.856323,229.483994 605.290710,228.584946 
	C604.975220,223.279434 603.465027,218.516220 598.978943,214.329025 
	C598.310425,212.848129 597.641846,211.367233 596.451355,209.592331 
	C591.829102,211.744141 591.431580,215.677322 591.942993,220.562042 
	C591.886475,220.731064 591.829956,220.900070 591.489197,221.354050 
	C591.311890,221.555862 591.145508,221.766296 591.000000,222.000610 
z"/>
<path fill="#421176" opacity="1.000000" stroke="none" 
	d="
M307.994293,201.938782 
	C311.410522,199.968170 314.826752,197.997574 318.906250,196.140747 
	C326.157501,195.628860 332.538544,196.318176 338.241974,199.910507 
	C339.540314,200.728271 340.229675,202.512894 341.199341,203.852509 
	C339.310089,204.350861 337.443115,205.021912 335.521545,205.270172 
	C334.642761,205.383713 333.632416,204.718613 332.722778,204.314331 
	C327.755035,202.106522 322.955811,201.069260 317.697662,204.015106 
	C311.626251,207.416565 306.049469,212.105621 306.700562,224.436798 
	C307.074646,231.521164 310.722412,236.769272 317.684143,239.484253 
	C323.829224,241.880753 329.605469,241.483109 335.461029,238.452499 
	C336.531525,237.898438 338.500854,239.081055 340.055298,239.462006 
	C339.457397,240.849808 339.202240,243.067139 338.201721,243.480545 
	C334.074127,245.185989 329.666901,247.642212 325.459564,247.468613 
	C310.880859,246.867065 296.616577,232.843765 300.674713,217.903336 
	C302.188477,212.330261 305.501648,207.245956 307.994293,201.938782 
z"/>
<path fill="#4C2A74" opacity="1.000000" stroke="none" 
	d="
M239.918396,217.210190 
	C233.733521,213.573959 234.365784,202.563644 241.049484,197.512955 
	C245.846436,193.888031 263.883331,193.819992 268.171875,197.973770 
	C270.764984,200.485397 272.301605,204.087769 273.786896,207.711395 
	C269.167419,208.677460 265.853333,209.279572 261.611023,206.923431 
	C257.886383,204.854828 252.213379,206.213562 247.405640,206.305252 
	C246.942307,206.314072 246.017426,208.173080 246.188614,208.987976 
	C246.416580,210.073151 247.316452,211.535614 248.263901,211.862961 
	C252.747437,213.411972 257.267303,215.122574 261.919342,215.860321 
	C270.985809,217.298126 277.718414,223.114105 277.981476,230.545975 
	C278.332092,240.450684 273.468445,247.227295 263.579681,248.487854 
	C257.114563,249.311996 250.398422,248.405197 243.818466,247.938705 
	C241.945343,247.805908 239.697296,246.938995 238.437714,245.625656 
	C236.670959,243.783493 234.070404,239.823151 234.618591,239.191315 
	C236.815674,236.659012 240.369293,234.399490 243.778976,236.494904 
	C250.266205,240.481659 256.929443,238.869293 263.477234,237.703445 
	C264.931061,237.444580 266.458069,234.218079 266.855927,232.147476 
	C267.568756,228.437378 264.679352,226.884018 261.626740,226.089523 
	C257.161530,224.927383 252.514069,224.346313 248.180603,222.838440 
	C245.213623,221.806030 242.648804,219.617859 240.265686,217.554184 
	C247.297516,219.249969 253.986450,221.281418 260.626404,223.462021 
	C262.501709,224.077866 264.216614,225.168808 266.035065,225.974152 
	C269.664825,227.581665 269.573090,230.934769 268.740936,233.667328 
	C268.030518,236.000229 265.899841,239.507492 264.176880,239.640564 
	C257.541443,240.153122 250.739685,240.048172 244.160797,239.080170 
	C241.082031,238.627136 239.224503,238.367813 237.386551,241.638489 
	C239.389114,242.839661 241.095306,244.160614 243.017639,244.965042 
	C251.749084,248.618744 260.133698,248.631332 268.786285,243.851349 
	C275.975555,239.879761 278.601013,228.002182 272.163513,222.899811 
	C268.766815,220.207596 264.402863,218.543701 260.246155,217.057159 
	C256.198853,215.609711 251.713303,215.358780 247.713959,213.819275 
	C245.943375,213.137680 243.830475,210.584396 243.815842,208.864273 
	C243.800674,207.078125 245.964081,203.905334 247.469864,203.718613 
	C253.056641,203.025772 258.914307,201.259720 264.219147,205.459686 
	C265.682739,206.618454 268.158630,206.498566 271.018829,207.162369 
	C269.582642,201.848450 267.475708,199.012589 263.482635,197.654556 
	C257.255859,195.536865 251.218552,195.457153 245.030106,198.121368 
	C239.663025,200.431946 237.229263,204.206375 238.363327,209.907043 
	C238.848923,212.347946 239.398117,214.776199 239.918396,217.210190 
z"/>
<path fill="#4C2A74" opacity="1.000000" stroke="none" 
	d="
M307.644958,201.993225 
	C305.501648,207.245956 302.188477,212.330261 300.674713,217.903336 
	C296.616577,232.843765 310.880859,246.867065 325.459564,247.468613 
	C329.666901,247.642212 334.074127,245.185989 338.201721,243.480545 
	C339.202240,243.067139 339.457397,240.849808 340.055298,239.462006 
	C338.500854,239.081055 336.531525,237.898438 335.461029,238.452499 
	C329.605469,241.483109 323.829224,241.880753 317.684143,239.484253 
	C310.722412,236.769272 307.074646,231.521164 306.700562,224.436798 
	C306.049469,212.105621 311.626251,207.416565 317.697662,204.015106 
	C322.955811,201.069260 327.755035,202.106522 332.722778,204.314331 
	C333.632416,204.718613 334.642761,205.383713 335.521545,205.270172 
	C337.443115,205.021912 339.310089,204.350861 341.199341,203.852509 
	C340.229675,202.512894 339.540314,200.728271 338.241974,199.910507 
	C332.538544,196.318176 326.157501,195.628860 319.271301,196.077606 
	C328.711975,193.655838 337.397217,195.537598 345.902710,202.866852 
	C343.005280,205.245544 340.506439,207.297028 337.737183,209.570496 
	C332.430450,206.312668 326.598602,203.646957 319.546478,205.998642 
	C313.484222,208.020218 307.758759,215.690872 308.001312,222.336380 
	C308.273987,229.805542 313.306976,236.922363 320.028168,237.863739 
	C324.226105,238.451706 328.851990,238.124283 332.928497,236.958344 
	C339.743256,235.009186 340.160370,234.768448 344.868317,241.264786 
	C344.053925,242.192871 343.349518,243.378494 342.321686,244.109100 
	C328.457916,253.963730 303.617767,249.977539 299.395721,229.496796 
	C297.368439,219.662552 297.060547,208.986115 307.644958,201.993225 
z"/>
<path fill="#431575" opacity="1.000000" stroke="none" 
	d="
M544.977417,249.705414 
	C540.191101,250.501709 538.854736,248.498093 538.941833,243.728836 
	C539.235901,227.627274 539.053894,211.517029 539.053894,195.135834 
	C541.171997,195.135834 543.636353,195.135834 546.516235,195.563995 
	C546.780396,196.973892 546.488708,197.957016 546.498413,198.937134 
	C546.634216,212.679245 546.940186,226.421494 546.881653,240.162338 
	C546.868103,243.346008 545.644348,246.524536 544.977417,249.705414 
z"/>
<path fill="#421176" opacity="1.000000" stroke="none" 
	d="
M445.997101,248.829514 
	C444.273346,248.856628 442.549561,248.883743 440.306458,248.450104 
	C439.547760,246.852020 439.103729,245.715286 439.100250,244.577225 
	C439.058655,230.931671 439.044708,217.285690 439.134521,203.640549 
	C439.146362,201.842712 439.507294,199.931686 440.221344,198.298080 
	C440.637451,197.346069 442.239594,196.128220 443.016632,196.305756 
	C444.125641,196.559128 445.330231,197.823990 445.821289,198.950180 
	C446.313171,200.078369 446.002533,201.566864 446.002747,202.897446 
	C446.005341,218.208130 446.000183,233.518829 445.997101,248.829514 
z"/>
<path fill="#482571" opacity="1.000000" stroke="none" 
	d="
M237.841248,103.598015 
	C230.362671,105.551346 222.595581,107.114105 214.893784,108.950706 
	C203.318390,111.711014 191.631226,114.152229 180.276413,117.652977 
	C163.079117,122.954987 146.136200,129.079666 129.057327,134.771240 
	C127.043793,135.442245 124.855057,135.587540 122.328056,135.954132 
	C136.268478,130.575592 150.490555,124.802208 165.033188,119.999367 
	C176.069992,116.354370 187.444839,113.635345 198.796707,111.067780 
	C211.650909,108.160408 224.647354,105.881943 237.841248,103.598015 
z"/>
<path fill="#482571" opacity="1.000000" stroke="none" 
	d="
M294.414246,110.828995 
	C298.545319,109.850471 303.117096,108.088326 307.658234,108.164032 
	C323.528107,108.428604 339.412628,108.970467 355.243286,110.090263 
	C369.983429,111.132927 384.661865,113.047539 399.685120,114.987656 
	C400.002747,115.397011 399.994141,115.796761 399.994141,115.796753 
	C389.834595,114.819168 379.687195,113.682503 369.512238,112.907295 
	C358.644287,112.079277 347.753662,111.525429 336.866638,110.977997 
	C328.297943,110.547142 319.721313,110.127121 311.145020,110.049065 
	C305.713318,109.999634 300.275787,110.586563 294.414246,110.828995 
z"/>
<path fill="#4C2A74" opacity="1.000000" stroke="none" 
	d="
M446.307068,248.745880 
	C446.000183,233.518829 446.005341,218.208130 446.002747,202.897446 
	C446.002533,201.566864 446.313171,200.078369 445.821289,198.950180 
	C445.330231,197.823990 444.125641,196.559128 443.016632,196.305756 
	C442.239594,196.128220 440.637451,197.346069 440.221344,198.298080 
	C439.507294,199.931686 439.146362,201.842712 439.134521,203.640549 
	C439.044708,217.285690 439.058655,230.931671 439.100250,244.577225 
	C439.103729,245.715286 439.547760,246.852020 439.880249,248.379593 
	C439.354034,248.190338 438.196716,247.613876 438.193390,247.030914 
	C438.096832,229.937973 438.115173,212.844376 438.115173,195.522278 
	C441.908051,195.522278 445.236725,195.522278 448.002472,195.522278 
	C448.002472,206.410278 448.172150,216.807739 447.944031,227.196457 
	C447.786743,234.357971 447.078857,241.507416 446.307068,248.745880 
z"/>
<path fill="#512E7C" opacity="1.000000" stroke="none" 
	d="
M378.764648,102.665985 
	C377.780609,103.215637 376.479553,103.793930 375.226624,103.703667 
	C354.599335,102.217598 333.988953,100.472511 313.349121,99.201752 
	C307.100952,98.817062 300.777283,99.762489 294.483765,99.950592 
	C292.526764,100.009087 290.555206,99.580429 288.226013,99.157928 
	C288.742645,98.612488 289.622345,98.001389 290.504700,97.997513 
	C304.782898,97.934608 319.091156,97.371017 333.331787,98.103554 
	C348.411346,98.879242 363.426605,100.904228 378.764648,102.665985 
z"/>
<path fill="#441974" opacity="1.000000" stroke="none" 
	d="
M400.408325,115.869812 
	C399.994141,115.796761 400.002747,115.397011 400.009583,115.197166 
	C415.214539,117.222549 430.441101,119.274315 445.596924,121.757950 
	C451.700745,122.758209 457.649445,124.704788 463.830017,126.525902 
	C442.935028,123.201698 421.878784,119.572281 400.408325,115.869812 
z"/>
<path fill="#512E7C" opacity="1.000000" stroke="none" 
	d="
M545.377869,249.758698 
	C545.644348,246.524536 546.868103,243.346008 546.881653,240.162338 
	C546.940186,226.421494 546.634216,212.679245 546.498413,198.937134 
	C546.488708,197.957016 546.780396,196.973892 546.952942,195.625153 
	C547.637329,196.049698 548.873718,196.837173 548.879395,197.633438 
	C548.994263,213.709549 549.042847,229.787689 548.831360,245.861816 
	C548.813904,247.191711 546.842102,248.495880 545.377869,249.758698 
z"/>
<path fill="#482571" opacity="1.000000" stroke="none" 
	d="
M238.443390,115.845192 
	C242.036148,114.610870 245.983414,112.802711 250.071854,112.388817 
	C261.099121,111.272499 272.185089,110.727112 283.252075,110.023209 
	C284.551849,109.940536 285.878662,110.282951 287.552795,110.601082 
	C271.562500,112.484978 255.212402,114.196091 238.443390,115.845192 
z"/>
<path fill="#512E7C" opacity="1.000000" stroke="none" 
	d="
M285.474060,99.122162 
	C281.244263,100.021294 276.583374,101.276222 271.852997,101.648209 
	C262.479309,102.385330 253.067276,102.635033 243.306915,103.027946 
	C248.715363,101.994720 254.455032,100.628593 260.268524,100.138695 
	C268.487610,99.446091 276.761261,99.400742 285.474060,99.122162 
z"/>
<path fill="#482571" opacity="1.000000" stroke="none" 
	d="
M83.656235,155.135696 
	C84.532448,156.450439 85.049088,157.711426 85.892090,159.009735 
	C81.794022,161.363464 77.369576,163.679855 72.273071,165.922119 
	C71.075325,164.904114 70.549637,163.960220 70.023949,163.016342 
	C74.448189,160.371552 78.872421,157.726746 83.656235,155.135696 
z"/>
<path fill="#4C2A74" opacity="1.000000" stroke="none" 
	d="
M69.682930,163.075745 
	C70.549637,163.960220 71.075325,164.904114 71.923500,165.972092 
	C65.528961,169.780701 58.811932,173.465210 52.094906,177.149734 
	C51.874634,176.806015 51.654362,176.462296 51.434086,176.118576 
	C57.403362,171.790756 63.372635,167.462952 69.682930,163.075745 
z"/>
<path fill="#441974" opacity="1.000000" stroke="none" 
	d="
M465.236877,127.338654 
	C466.253204,126.226547 467.525574,125.398354 469.280334,124.289513 
	C470.531158,123.983727 471.299561,123.958580 472.067963,123.933441 
	C472.067963,123.933441 472.026428,123.994957 472.165100,124.293396 
	C475.288666,125.380714 478.273590,126.169594 481.258514,126.958481 
	C481.258514,126.958473 481.623779,127.038681 481.895447,127.377434 
	C482.060944,128.818039 481.954773,129.919907 481.848602,131.021759 
	C481.431488,130.970291 481.014374,130.918808 480.185303,130.553528 
	C478.885529,130.058365 477.997742,129.876999 477.109955,129.695633 
	C473.237610,129.004608 469.365234,128.313583 465.236877,127.338654 
z"/>
<path fill="#4C2A74" opacity="1.000000" stroke="none" 
	d="
M482.085999,131.328552 
	C481.954773,129.919907 482.060944,128.818039 482.068665,127.447922 
	C487.377441,129.019531 492.784698,130.859390 498.191956,132.699265 
	C497.942078,133.526123 497.692200,134.352982 497.442322,135.179855 
	C492.402679,133.998337 487.363068,132.816833 482.085999,131.328552 
z"/>
<path fill="#6F5688" opacity="1.000000" stroke="none" 
	d="
M365.684906,196.205841 
	C366.056519,213.278564 366.069183,230.598022 366.107330,248.372574 
	C365.778198,248.361969 365.112915,247.895706 365.113800,247.430710 
	C365.146088,230.437927 365.240265,213.445282 365.684906,196.205841 
z"/>
<path fill="#F9D1FF" opacity="1.000000" stroke="none" 
	d="
M171.704483,194.994598 
	C172.091629,211.868591 172.060287,228.931107 172.060455,246.453339 
	C171.734558,246.495514 171.063934,246.077286 171.064819,245.660492 
	C171.100693,228.834625 171.197220,212.008881 171.704483,194.994598 
z"/>
<path fill="#512E7C" opacity="1.000000" stroke="none" 
	d="
M558.360413,151.802322 
	C557.663574,148.548447 557.261902,145.010529 556.773376,140.707413 
	C555.699829,140.769058 554.180115,140.856339 552.298584,140.970779 
	C553.839233,139.264435 555.741577,137.530914 558.028137,135.447296 
	C562.234619,140.959244 558.177979,146.359314 558.360413,151.802322 
z"/>
<path fill="#512E7C" opacity="1.000000" stroke="none" 
	d="
M407.323944,107.122803 
	C403.740417,107.250290 399.855316,107.394287 396.085052,106.804306 
	C390.545288,105.937416 385.087555,104.546204 379.283417,103.155334 
	C388.339203,104.225235 397.706451,105.518173 407.323944,107.122803 
z"/>
<path fill="#512E7C" opacity="1.000000" stroke="none" 
	d="
M446.995605,116.657104 
	C439.357788,115.169853 431.474091,113.383377 423.316162,111.370667 
	C430.944519,112.882263 438.847137,114.620071 446.995605,116.657104 
z"/>
<path fill="#A695BC" opacity="1.000000" stroke="none" 
	d="
M212.832855,194.642242 
	C199.789352,194.949707 186.621887,194.826889 173.128021,194.408325 
	C186.104050,194.145721 199.406494,194.178833 212.832855,194.642242 
z"/>
<path fill="#482571" opacity="1.000000" stroke="none" 
	d="
M114.189392,139.735077 
	C114.602554,140.149185 114.823845,140.998917 114.707123,141.048218 
	C109.644257,143.186264 104.551468,145.253418 99.186661,147.135956 
	C103.887299,144.560928 108.863579,142.179123 114.189392,139.735077 
z"/>
<path fill="#A695BC" opacity="1.000000" stroke="none" 
	d="
M503.849060,194.608627 
	C492.738739,195.036987 481.415161,195.080887 469.644409,195.188507 
	C469.883118,194.832916 470.568939,194.048859 471.254822,194.048798 
	C482.048462,194.047714 492.842102,194.147537 503.849060,194.608627 
z"/>
<path fill="#A695BC" opacity="1.000000" stroke="none" 
	d="
M64.765976,194.595245 
	C53.563118,194.993774 42.146568,195.016113 30.241720,195.055573 
	C30.429098,194.716599 31.104948,194.050430 31.780432,194.050797 
	C42.704407,194.056839 53.628338,194.147537 64.765976,194.595245 
z"/>
<path fill="#A695BC" opacity="1.000000" stroke="none" 
	d="
M134.701569,194.569275 
	C123.578842,194.981918 112.288063,194.996033 100.533783,195.022705 
	C100.873802,194.695663 101.676903,194.062088 102.480911,194.060944 
	C113.165047,194.045792 123.849297,194.119324 134.701569,194.569275 
z"/>
<path fill="#A695BC" opacity="1.000000" stroke="none" 
	d="
M400.881958,194.640656 
	C389.755615,195.033600 378.412140,195.039719 366.614136,195.062576 
	C366.750946,194.717438 367.342987,194.039307 367.933563,194.040527 
	C378.844086,194.063248 389.754425,194.167099 400.881958,194.640656 
z"/>
<path fill="#A695BC" opacity="1.000000" stroke="none" 
	d="
M109.349060,243.826874 
	C108.940063,243.841568 108.933403,243.676636 108.929634,243.511627 
	C108.532883,226.111557 108.532906,226.111557 126.665359,228.522583 
	C121.504379,228.825439 116.049599,228.825439 109.752754,228.825439 
	C109.752754,234.138336 109.752754,238.892776 109.349060,243.826874 
z"/>
<path fill="#A695BC" opacity="1.000000" stroke="none" 
	d="
M583.489441,241.058929 
	C584.512146,240.718460 585.993408,240.059982 587.488892,240.025894 
	C593.411743,239.890854 599.340637,239.874542 605.263672,239.992752 
	C606.756165,240.022552 608.235352,240.714783 609.818054,241.494110 
	C604.390015,241.592148 598.866882,241.239838 593.338318,241.028152 
	C590.214905,240.908569 587.082764,241.020309 583.489441,241.058929 
z"/>
<path fill="#441974" opacity="1.000000" stroke="none" 
	d="
M464.996094,123.001343 
	C461.087402,121.599037 457.178741,120.196732 453.133484,118.478477 
	C456.738129,119.133171 460.479340,120.103821 464.608582,121.454880 
	C464.996460,122.223969 464.996277,122.612656 464.996094,123.001343 
z"/>
<path fill="#A695BC" opacity="1.000000" stroke="none" 
	d="
M40.481895,229.046326 
	C41.972824,228.643997 43.924118,227.971085 45.889538,227.926926 
	C51.964840,227.790436 58.045521,227.893524 64.594543,227.955872 
	C62.780315,228.360809 60.501881,228.959656 58.209755,229.017700 
	C52.459381,229.163330 46.702812,229.064270 40.481895,229.046326 
z"/>
<path fill="#512E7C" opacity="1.000000" stroke="none" 
	d="
M419.900940,109.594429 
	C416.184845,109.355728 412.197784,108.826065 407.850220,108.118233 
	C411.536469,108.394531 415.583221,108.848999 419.900940,109.594429 
z"/>
<path fill="#512E7C" opacity="1.000000" stroke="none" 
	d="
M565.899292,162.686569 
	C563.406616,160.862381 560.745178,158.748062 558.067383,156.277100 
	C560.610840,158.079117 563.170654,160.237778 565.899292,162.686569 
z"/>
<path fill="#512E7C" opacity="1.000000" stroke="none" 
	d="
M481.060425,126.629044 
	C478.273590,126.169594 475.288666,125.380714 472.169067,124.256523 
	C474.977081,124.714012 477.919708,125.506813 481.060425,126.629044 
z"/>
<path fill="#482571" opacity="1.000000" stroke="none" 
	d="
M121.581543,135.938293 
	C119.794250,137.173431 117.647583,138.474518 115.111427,139.692535 
	C116.888672,138.407715 119.055420,137.205963 121.581543,135.938293 
z"/>
<path fill="#482571" opacity="1.000000" stroke="none" 
	d="
M89.352921,157.976135 
	C90.048019,155.693008 91.228928,153.585938 94.710915,154.893021 
	C93.243546,155.987061 91.469131,156.951019 89.352921,157.976135 
z"/>
<path fill="#512E7C" opacity="1.000000" stroke="none" 
	d="
M569.314453,169.802414 
	C569.011719,168.699890 569.055786,167.640640 569.163391,166.182846 
	C570.283447,166.751389 571.340027,167.718475 572.396545,168.685547 
	C571.484802,169.072266 570.573059,169.458984 569.314453,169.802414 
z"/>
<path fill="#482571" opacity="1.000000" stroke="none" 
	d="
M96.603851,147.940948 
	C95.810158,148.748154 94.688240,149.586563 93.309975,150.298447 
	C94.127632,149.438660 95.201630,148.705399 96.603851,147.940948 
z"/>
<path fill="#512E7C" opacity="1.000000" stroke="none" 
	d="
M569.187134,165.523834 
	C568.157166,165.112289 567.160278,164.351913 566.091003,163.259521 
	C567.085815,163.676651 568.152954,164.425827 569.187134,165.523834 
z"/>
<path fill="#4C2A74" opacity="1.000000" stroke="none" 
	d="
M477.376587,129.869843 
	C477.997742,129.876999 478.885529,130.058365 479.878601,130.480804 
	C479.203644,130.495941 478.423462,130.269989 477.376587,129.869843 
z"/>
<path fill="#482571" opacity="1.000000" stroke="none" 
	d="
M87.686417,153.164963 
	C87.173492,153.760132 86.337379,154.349777 85.165802,154.950439 
	C85.674644,154.360794 86.518936,153.760101 87.686417,153.164963 
z"/>
<path fill="#512E7C" opacity="1.000000" stroke="none" 
	d="
M465.399323,122.997887 
	C464.996277,122.612656 464.996460,122.223969 464.990692,121.544250 
	C465.954163,121.641228 466.923553,122.029228 468.058777,122.692154 
	C467.417267,122.976181 466.609894,122.985306 465.399323,122.997887 
z"/>
<path fill="#441974" opacity="1.000000" stroke="none" 
	d="
M450.894897,117.642685 
	C450.438446,117.784035 449.797852,117.692528 449.075378,117.368332 
	C449.565918,117.227036 450.138336,117.318428 450.894897,117.642685 
z"/>
<path fill="#512E7C" opacity="1.000000" stroke="none" 
	d="
M471.929535,123.607025 
	C471.299561,123.958580 470.531158,123.983727 469.377686,124.015854 
	C468.992584,124.022842 468.992218,123.589973 468.993103,123.373856 
	C469.926392,123.198692 470.858734,123.239655 471.929535,123.607025 
z"/>
<path fill="#482571" opacity="1.000000" stroke="none" 
	d="
M87.302872,158.880234 
	C87.494370,158.601486 87.987228,158.350876 88.756134,158.056305 
	C88.556190,158.311005 88.080215,158.609680 87.302872,158.880234 
z"/>
<path fill="#512E7C" opacity="1.000000" stroke="none" 
	d="
M558.067505,155.664566 
	C557.915527,155.459412 557.755859,154.917633 557.739502,154.184784 
	C557.941772,154.438461 558.000854,154.883194 558.067505,155.664566 
z"/>
<path fill="#482571" opacity="1.000000" stroke="none" 
	d="
M97.781006,147.109955 
	C97.846413,147.344833 97.615364,147.555573 97.150391,147.850159 
	C97.136436,147.684845 97.325798,147.402100 97.781006,147.109955 
z"/>
<path fill="#482571" opacity="1.000000" stroke="none" 
	d="
M90.745453,151.184402 
	C90.785561,151.385483 90.548546,151.588348 90.078438,151.873047 
	C90.081177,151.731567 90.288841,151.475327 90.745453,151.184402 
z"/>
<path fill="#000000" opacity="1.000000" stroke="none" 
	d="
M478.912964,210.743835 
	C478.977295,208.746384 479.117432,207.147797 479.299774,205.068069 
	C486.664062,205.068069 493.815369,204.679672 500.870758,205.330795 
	C502.722260,205.501648 504.276367,208.895172 505.967041,210.808716 
	C504.273438,212.192673 502.704041,214.552979 500.864136,214.787094 
	C493.874207,215.676514 486.796814,215.878479 479.496460,216.354111 
	C479.270264,214.032364 479.129517,212.587524 478.912964,210.743835 
z"/>
<path fill="#4C2A74" opacity="1.000000" stroke="none" 
	d="
M504.007172,224.994720 
	C507.951813,226.253906 510.657135,230.316757 509.681610,233.999756 
	C508.618805,238.012421 506.565826,240.753799 501.627075,240.434830 
	C494.990387,240.006180 488.317719,240.004776 481.662140,240.051834 
	C478.212921,240.076202 476.618195,238.662399 477.024445,235.288773 
	C477.386536,232.282074 477.994110,229.304962 478.841705,226.219742 
	C479.190063,226.124695 479.078644,226.136230 479.065613,226.591644 
	C479.052551,230.827377 479.052551,234.607681 479.052551,238.990448 
	C482.704102,238.767639 485.730408,238.525269 488.761505,238.410858 
	C493.999939,238.213181 499.266235,238.327072 504.463135,237.770828 
	C505.675934,237.641022 507.764923,235.091507 507.534546,234.100906 
	C506.881134,231.291245 505.236084,228.712204 503.987915,225.780457 
	C503.998596,225.343948 504.002869,225.169342 504.007172,224.994720 
z"/>
<path fill="#6F5688" opacity="1.000000" stroke="none" 
	d="
M503.538452,224.967987 
	C504.002869,225.169342 503.998596,225.343948 503.521240,225.775421 
	C495.058350,226.066956 487.068481,226.101593 479.078644,226.136230 
	C479.078644,226.136230 479.190063,226.124695 479.210297,226.073029 
	C482.400757,225.650253 485.563446,225.072876 488.743011,224.956375 
	C493.512360,224.781601 498.293579,224.930176 503.538452,224.967987 
z"/>
<path fill="#000000" opacity="1.000000" stroke="none" 
	d="
M384.162598,218.320358 
	C381.564819,218.094498 378.967041,217.868637 376.137329,216.885498 
	C375.905365,212.555054 375.905365,208.981873 375.905365,204.463242 
	C385.563232,205.059799 394.258362,205.596878 402.953491,206.133972 
	C402.953491,206.133972 403.004547,206.046371 403.050903,206.278915 
	C403.398468,206.697891 403.699677,206.884338 404.000854,207.070770 
	C404.000854,207.070770 403.945923,206.989029 403.925476,207.408737 
	C403.906647,210.543518 403.908295,213.258575 403.909943,215.973648 
	C403.909943,215.973648 403.979431,216.000610 403.745728,216.068375 
	C403.317261,216.426346 403.122528,216.716553 402.927765,217.006760 
	C402.927765,217.006760 402.998016,216.979446 402.568451,217.023682 
	C396.146790,217.485382 390.154694,217.902863 384.162598,218.320358 
z"/>
<path fill="#512E7C" opacity="1.000000" stroke="none" 
	d="
M402.874146,205.808807 
	C394.258362,205.596878 385.563232,205.059799 375.905365,204.463242 
	C375.905365,208.981873 375.905365,212.555054 375.829468,216.589569 
	C375.320221,217.232208 374.886871,217.413544 374.453491,217.594849 
	C374.468323,213.350479 374.408936,209.102646 374.605469,204.866714 
	C374.626587,204.412018 376.126190,203.688171 376.957886,203.662125 
	C383.714355,203.450546 390.478882,203.211609 397.232208,203.365463 
	C399.101501,203.408066 400.941406,204.742126 402.874146,205.808807 
z"/>
<path fill="#512E7C" opacity="1.000000" stroke="none" 
	d="
M384.529297,218.462067 
	C390.154694,217.902863 396.146790,217.485382 402.554688,216.988586 
	C401.892242,217.688019 400.819702,219.123535 399.734833,219.132935 
	C394.790466,219.175751 389.842590,218.817703 384.529297,218.462067 
z"/>
<path fill="#512E7C" opacity="1.000000" stroke="none" 
	d="
M404.227966,215.871674 
	C403.908295,213.258575 403.906647,210.543518 403.884552,207.436157 
	C407.088928,209.718216 407.348663,212.624298 404.227966,215.871674 
z"/>
<path fill="#512E7C" opacity="1.000000" stroke="none" 
	d="
M403.127930,216.848755 
	C403.122528,216.716553 403.317261,216.426346 403.759094,216.033600 
	C403.780151,216.184311 403.554108,216.437546 403.127930,216.848755 
z"/>
<path fill="#512E7C" opacity="1.000000" stroke="none" 
	d="
M403.844147,206.868530 
	C403.699677,206.884338 403.398468,206.697891 403.007080,206.253464 
	C403.173706,206.219070 403.430573,206.442673 403.844147,206.868530 
z"/>
<path fill="#000000" opacity="1.000000" stroke="none" 
	d="
M133.040298,218.225922 
	C125.365219,218.136108 117.690140,218.046295 109.703964,217.533508 
	C109.738426,213.229477 110.083984,209.348404 110.470947,205.002289 
	C116.857559,205.002289 122.962776,205.106903 129.062241,204.964737 
	C132.990158,204.873169 136.412354,205.505661 137.796829,209.726257 
	C139.252090,214.162582 136.648590,216.521683 133.040298,218.225922 
z"/>
<path fill="#512E7C" opacity="1.000000" stroke="none" 
	d="
M133.233734,218.453888 
	C136.648590,216.521683 139.252090,214.162582 137.796829,209.726257 
	C136.412354,205.505661 132.990158,204.873169 129.062241,204.964737 
	C122.962776,205.106903 116.857559,205.002289 110.470947,205.002289 
	C110.083984,209.348404 109.738426,213.229477 109.245560,217.488113 
	C108.435959,217.459702 107.270821,217.125015 107.201347,216.634995 
	C106.946426,214.836960 106.991417,212.985657 107.038963,211.157410 
	C107.226608,203.942276 107.771965,203.608047 114.966705,203.891144 
	C121.284592,204.139725 127.620277,203.901794 133.943497,204.061386 
	C137.683014,204.155762 139.633652,206.341293 139.968781,210.062592 
	C140.343658,214.225372 139.401871,217.697433 135.152802,219.406021 
	C134.741196,219.571533 134.009995,218.942230 133.233734,218.453888 
z"/>
<path fill="#000000" opacity="1.000000" stroke="none" 
	d="
M46.055763,218.177704 
	C43.803669,218.006180 41.551579,217.834671 39.464245,217.057114 
	C39.859932,212.726730 40.090855,209.002365 40.338116,205.014572 
	C47.551083,205.014572 54.190990,204.928436 60.827396,205.043839 
	C65.511185,205.125290 68.773537,208.029251 68.607468,211.644135 
	C68.445786,215.163284 64.939034,218.059525 60.519848,218.140991 
	C55.699902,218.229889 50.877239,218.171738 46.055763,218.177704 
z"/>
<path fill="#512E7C" opacity="1.000000" stroke="none" 
	d="
M46.419823,218.355682 
	C50.877239,218.171738 55.699902,218.229889 60.519848,218.140991 
	C64.939034,218.059525 68.445786,215.163284 68.607468,211.644135 
	C68.773537,208.029251 65.511185,205.125290 60.827396,205.043839 
	C54.190990,204.928436 47.551083,205.014572 40.338116,205.014572 
	C40.090855,209.002365 39.859932,212.726730 39.334518,216.752167 
	C38.732204,213.806473 38.075996,210.535355 38.299881,207.325653 
	C38.381531,206.155151 40.521252,204.237228 41.783318,204.186539 
	C49.238216,203.887161 56.714382,203.904099 64.176865,204.084595 
	C68.850342,204.197632 69.775177,207.976425 69.769997,211.501389 
	C69.764824,215.017792 68.872536,218.809952 64.163437,218.877228 
	C58.373074,218.959961 52.577312,218.665237 46.419823,218.355682 
z"/>
<path fill="#000000" opacity="1.000000" stroke="none" 
	d="
M588.032593,229.847534 
	C588.032593,229.847534 588.052307,229.469452 588.333008,229.051758 
	C589.403992,226.418060 590.194336,224.202057 590.984619,221.986053 
	C590.984680,221.986069 591.000000,222.000610 591.194885,221.904907 
	C591.672058,221.642532 591.799927,221.395828 591.773438,221.069092 
	C591.829956,220.900070 591.886475,220.731064 592.272095,220.073257 
	C594.058472,216.351761 595.515869,213.119049 596.973267,209.886322 
	C597.641846,211.367233 598.310425,212.848129 599.045288,215.049164 
	C601.043091,220.233887 602.974487,224.698471 604.905823,229.163055 
	C604.856323,229.483994 604.690002,229.723969 603.743408,229.957062 
	C598.064148,229.969971 593.048340,229.908752 588.032593,229.847534 
z"/>
<path fill="#512E7C" opacity="1.000000" stroke="none" 
	d="
M605.098267,228.873993 
	C602.974487,224.698471 601.043091,220.233887 599.125000,215.400421 
	C603.465027,218.516220 604.975220,223.279434 605.098267,228.873993 
z"/>
<path fill="#512E7C" opacity="1.000000" stroke="none" 
	d="
M588.025879,230.135956 
	C593.048340,229.908752 598.064148,229.969971 603.548950,230.070984 
	C599.168396,233.792770 593.947815,231.583755 588.416870,231.033600 
	C588.000000,231.000000 588.002441,231.001160 588.002441,231.001160 
	C588.008057,230.808899 588.013672,230.616638 588.025879,230.135956 
z"/>
<path fill="#512E7C" opacity="1.000000" stroke="none" 
	d="
M596.712280,209.739319 
	C595.515869,213.119049 594.058472,216.351761 592.324097,219.811066 
	C591.431580,215.677322 591.829102,211.744141 596.712280,209.739319 
z"/>
<path fill="#512E7C" opacity="1.000000" stroke="none" 
	d="
M590.680420,222.108948 
	C590.194336,224.202057 589.403992,226.418060 588.339478,228.862549 
	C585.499512,225.680664 589.255737,224.400253 590.680420,222.108948 
z"/>
<path fill="#512E7C" opacity="1.000000" stroke="none" 
	d="
M591.631348,221.211578 
	C591.799927,221.395828 591.672058,221.642532 591.189941,221.897278 
	C591.145508,221.766296 591.311890,221.555862 591.631348,221.211578 
z"/>
<path fill="#512E7C" opacity="1.000000" stroke="none" 
	d="
M587.999634,230.999146 
	C587.999207,230.998306 587.893005,231.059326 587.947754,231.030243 
	C588.002441,231.001160 588.000000,231.000000 587.999634,230.999146 
z"/>
<path fill="#421176" opacity="1.000000" stroke="none" 
	d="
M239.950287,217.195206 
	C239.398117,214.776199 238.848923,212.347946 238.363327,209.907043 
	C237.229263,204.206375 239.663025,200.431946 245.030106,198.121368 
	C251.218552,195.457153 257.255859,195.536865 263.482635,197.654556 
	C267.475708,199.012589 269.582642,201.848450 271.018829,207.162369 
	C268.158630,206.498566 265.682739,206.618454 264.219147,205.459686 
	C258.914307,201.259720 253.056641,203.025772 247.469864,203.718613 
	C245.964081,203.905334 243.800674,207.078125 243.815842,208.864273 
	C243.830475,210.584396 245.943375,213.137680 247.713959,213.819275 
	C251.713303,215.358780 256.198853,215.609711 260.246155,217.057159 
	C264.402863,218.543701 268.766815,220.207596 272.163513,222.899811 
	C278.601013,228.002182 275.975555,239.879761 268.786285,243.851349 
	C260.133698,248.631332 251.749084,248.618744 243.017639,244.965042 
	C241.095306,244.160614 239.389114,242.839661 237.386551,241.638489 
	C239.224503,238.367813 241.082031,238.627136 244.160797,239.080170 
	C250.739685,240.048172 257.541443,240.153122 264.176880,239.640564 
	C265.899841,239.507492 268.030518,236.000229 268.740936,233.667328 
	C269.573090,230.934769 269.664825,227.581665 266.035065,225.974152 
	C264.216614,225.168808 262.501709,224.077866 260.626404,223.462021 
	C253.986450,221.281418 247.297516,219.249969 240.274643,217.205048 
	C239.922119,217.248108 239.982193,217.180222 239.950287,217.195206 
z"/>
<path fill="#000000" opacity="1.000000" stroke="none" 
	d="
M479.065613,226.591644 
	C487.068481,226.101593 495.058350,226.066956 503.514832,226.037338 
	C505.236084,228.712204 506.881134,231.291245 507.534546,234.100906 
	C507.764923,235.091507 505.675934,237.641022 504.463135,237.770828 
	C499.266235,238.327072 493.999939,238.213181 488.761505,238.410858 
	C485.730408,238.525269 482.704102,238.767639 479.052551,238.990448 
	C479.052551,234.607681 479.052551,230.827377 479.065613,226.591644 
z"/>
</svg>